<svg xmlns:xlink="http://www.w3.org/1999/xlink" xmlns="http://www.w3.org/2000/svg" fill="#d80026" data-readystate="complete" width="543.22"  height="169.21" ><symbol id="logoClarin" version="1.1" xmlns="http://www.w3.org/2000/svg" viewBox="0 0 543.22 169.21" fill="#D80026"><defs><style>
              .cls-1 {
                fill: none;
              }

              .cls-2 {
                isolation: isolate;
              }

              .cls-3 {
                mix-blend-mode: multiply;
              }

              .cls-3, .cls-4 {
                fill: #d80026;
              }
              .cls-5 {
                fill: #fff;
              }
              .cls-6 {
                fill: #5057dd;
                fill: #000;
              }
            </style><symbol id="logoClarin" version="1.1" xmlns="http://www.w3.org/2000/svg" viewBox="0 0 543.22 169.21" fill="#D80026"><defs><style>
              .cls-1 {
                fill: none;
              }

              .cls-2 {
                isolation: isolate;
              }

              .cls-3 {
                mix-blend-mode: multiply;
              }

              .cls-3, .cls-4 {
                fill: #d80026;
              }
              .cls-5 {
                fill: #fff;
              }
              .cls-6 {
                fill: #5057dd;
                fill: #000;
              }
            </style></defs><g class="cls-2" fill="#D80026"><g id="Layer_2" fill="#D80026"><g id="Layer_1-2" data-name="Layer_1" fill="#D80026"><g fill="#D80026"><circle class="cls-5" cx="486.71" cy="66.02" r="46.85" fill="#FFFFFF"></circle><g fill="#D80026"><path class="cls-3" d="M84.35,110.94l-9.54.23c0,2.58-1.52,12.24-2.07,15.65-.11.67-.2,1.33-.28,2.01-.55,4.8-2.96,28.19-21.72,28.19s-20.51-43.72-20.51-43.72c0,0-2.32-43.38,2.23-68.89,4.54-25.51,20.89-24.16,20.89-24.16,16.12.23,22.71,44.95,22.71,44.95l8.29-1.69L70.3,0l-12.98,2.81,1.34,9.08C35.65,0,8.39,16.77,1.85,64.49c-8.09,58.98,13.01,85.11,13.01,85.11,6.05,10.16,13.78,15.53,20.69,18.36l21.59,1.25c2.47-.82,4.84-1.97,7.04-3.45,24.01-16.17,20.18-54.82,20.18-54.82Z" fill="#D80026"></path><path class="cls-4" d="M84.57,6.74v10.65h9.81v142.15h-8.26v9.62h43.25v-9.99h-10.23l-1.65-152.43h-32.92Z" fill="#D80026"></path><g fill="#D80026"><polygon class="cls-4" points="313.8 156.74 312.14 50.79 279.99 50.79 279.99 61.44 289.03 61.44 289.03 157.12 280.78 157.12 280.78 166.74 322.03 166.74 322.03 156.74 313.8 156.74" fill="#D80026"></polygon><path class="cls-4" d="M315.56,12.57l-7.37-6.85-18.08,26.07,7.14,4.2s15.62-15.68,18.3-23.42Z" fill="#D80026"></path></g><path class="cls-4" d="M404.37,156.19l-1.76-91.84s.84-13.57-17.27-13.57c0,0-11.04-.91-22.31,12.43l-2.43,2.12v-14.54h-32.03v10.68h8.17l1.32,96.19h-9.5v9.08h41.52v-9.73h-8.84v-79c0-.96.31-1.89.88-2.66,1.98-2.68,6.93-8.97,10.44-10.13.01,0,.03,0,.04-.01,3.11-.74,6.08,1.68,6.08,4.84l.8,84.56s.66,12.14,9.94,12.14h23.06v-10.45l-8.14-.09Z" fill="#D80026"></path><path class="cls-4" d="M267.95,51.38h0s0,0,0,0c-.34,0-.68.03-1.01.08-8.72.78-13.95,11.23-13.97,11.27l-.19-11.95h-32.15v10.65h9.04v95.68h-8.26v10.85h41.25v-11.22h-8.23l-1.22-78.14c1.19-8.7,6.5-8.52,6.5-8.52h.19c1.63,3.65,4.62,6.11,8.05,6.11,5.16,0,9.35-5.55,9.35-12.4s-4.19-12.4-9.35-12.4ZM252.97,62.74h0v.26-.26Z" fill="#D80026"></path><path class="cls-4" d="M205.69,157.13h0s-1.22-77.83-1.22-77.83c-.24-15.48-13-27.91-28.64-27.91h-3.94s-26.66,1.11-26.66,21.19c0,4.85,3.98,8.78,8.87,8.78s8.87-3.94,8.87-8.78c0-3.62-2.21-6.72-5.37-8.07,5.18-4.44,14.28-3.8,14.28-3.8,4.99,0,8.49,4.7,8.47,9.64l.06,18.89c-4.16-2.75-9.69-4.01-16.98-4.01-17.16,0-28.26,17.22-28.26,42.27,0,27.1,12.65,41.67,28.26,41.67,7.32,0,12.97-2.25,17.22-6.16l.02,4.97h35.06v-10.85h-10.04ZM172.58,159.02c-7.74,0-14.01-4.13-14.01-32.38s6.27-32.98,14.01-32.98c2.92,0,5.63,2.15,7.88,5.79l.17,53.68c-2.28,3.7-5.05,5.88-8.05,5.88Z" fill="#D80026"></path><path class="cls-1" d="M478.47,63.91v-.6c4.85-1.56,7.03-5.05,7.03-11.05v-5.88c0-9.13-7.04-14.41-16.87-14.41s-17.11,5.28-17.11,14.41v5.88c0,6,2.19,9.49,7.04,11.05v.6c-4.85.84-7.4,4.56-7.4,9.72v10.45c0,8.29,6.55,13.93,16.87,13.93s17.84-5.89,17.84-13.93v-10.45c0-5.16-2.55-8.88-7.4-9.72ZM464.88,45.77c0-2.28,1.46-3.84,3.76-3.84s3.52,1.44,3.52,3.84v9.61h0c0,2.88-1.33,4.2-3.64,4.2s-3.64-1.32-3.64-4.2v-9.61ZM472.51,83.84c0,2.52-1.46,4.2-4,4.2s-4-1.68-4-4.2v-10.57c0-3.24,1.33-4.69,4-4.69s4,1.44,4,4.69v10.57Z" fill="none"></path><path class="cls-1" d="M506.73,31.95c-10.31,0-17.23,6.37-17.23,16.33v33.39c0,10.81,5.82,16.33,16.87,16.33s16.87-5.64,16.87-16.33v-33.39c0-10.21-6.19-16.33-16.5-16.33Z" fill="none"></path><path class="cls-6" d="M468.51,68.59c-2.67,0-4,1.44-4,4.69v10.57c0,2.52,1.46,4.2,4,4.2s4-1.68,4-4.2v-10.57c0-3.24-1.33-4.69-4-4.69Z"></path><path class="cls-6" d="M468.52,59.58c2.31,0,3.64-1.32,3.64-4.2h0v-9.61c0-2.4-1.33-3.84-3.52-3.84-2.3,0-3.76,1.56-3.76,3.84v9.61c0,2.88,1.33,4.2,3.64,4.2Z"></path><path class="cls-6" d="M486.71,10.09c-31.21,0-56.51,25.04-56.51,55.93s25.3,55.93,56.51,55.93,56.5-25.04,56.5-55.93-25.3-55.93-56.5-55.93ZM485.86,84.08c0,8.04-7.52,13.93-17.84,13.93s-16.87-5.64-16.87-13.93v-10.45c0-5.16,2.55-8.89,7.4-9.72v-.6c-4.85-1.56-7.04-5.05-7.04-11.05v-5.88c0-9.13,7.28-14.41,17.11-14.41s16.87,5.28,16.87,14.41v5.88c0,6-2.18,9.49-7.03,11.05v.6c4.85.84,7.4,4.56,7.4,9.72v10.45ZM523.23,81.68c0,10.69-5.83,16.33-16.87,16.33s-16.87-5.52-16.87-16.33v-33.39c0-9.97,6.92-16.33,17.23-16.33s16.5,6.13,16.5,16.33v33.39Z"></path><path class="cls-6" d="M506.36,42.17c-2.55,0-3.64,1.68-3.64,4.44v36.87c0,2.52.6,4.44,3.64,4.44,2.55,0,3.64-1.32,3.64-4.44v-36.87c0-2.88-1.09-4.44-3.64-4.44Z"></path></g></g></g></g></g></symbol></defs><g class="cls-2" fill="#D80026"><g id="Layer_2" fill="#D80026"><g id="Layer_1-2" data-name="Layer_1" fill="#D80026"><g fill="#D80026"><circle class="cls-5" cx="486.71" cy="66.02" r="46.85" fill="#FFFFFF"></circle><g fill="#D80026"><path class="cls-3" d="M84.35,110.94l-9.54.23c0,2.58-1.52,12.24-2.07,15.65-.11.67-.2,1.33-.28,2.01-.55,4.8-2.96,28.19-21.72,28.19s-20.51-43.72-20.51-43.72c0,0-2.32-43.38,2.23-68.89,4.54-25.51,20.89-24.16,20.89-24.16,16.12.23,22.71,44.95,22.71,44.95l8.29-1.69L70.3,0l-12.98,2.81,1.34,9.08C35.65,0,8.39,16.77,1.85,64.49c-8.09,58.98,13.01,85.11,13.01,85.11,6.05,10.16,13.78,15.53,20.69,18.36l21.59,1.25c2.47-.82,4.84-1.97,7.04-3.45,24.01-16.17,20.18-54.82,20.18-54.82Z" fill="#D80026"></path><path class="cls-4" d="M84.57,6.74v10.65h9.81v142.15h-8.26v9.62h43.25v-9.99h-10.23l-1.65-152.43h-32.92Z" fill="#D80026"></path><g fill="#D80026"><polygon class="cls-4" points="313.8 156.74 312.14 50.79 279.99 50.79 279.99 61.44 289.03 61.44 289.03 157.12 280.78 157.12 280.78 166.74 322.03 166.74 322.03 156.74 313.8 156.74" fill="#D80026"></polygon><path class="cls-4" d="M315.56,12.57l-7.37-6.85-18.08,26.07,7.14,4.2s15.62-15.68,18.3-23.42Z" fill="#D80026"></path></g><path class="cls-4" d="M404.37,156.19l-1.76-91.84s.84-13.57-17.27-13.57c0,0-11.04-.91-22.31,12.43l-2.43,2.12v-14.54h-32.03v10.68h8.17l1.32,96.19h-9.5v9.08h41.52v-9.73h-8.84v-79c0-.96.31-1.89.88-2.66,1.98-2.68,6.93-8.97,10.44-10.13.01,0,.03,0,.04-.01,3.11-.74,6.08,1.68,6.08,4.84l.8,84.56s.66,12.14,9.94,12.14h23.06v-10.45l-8.14-.09Z" fill="#D80026"></path><path class="cls-4" d="M267.95,51.38h0s0,0,0,0c-.34,0-.68.03-1.01.08-8.72.78-13.95,11.23-13.97,11.27l-.19-11.95h-32.15v10.65h9.04v95.68h-8.26v10.85h41.25v-11.22h-8.23l-1.22-78.14c1.19-8.7,6.5-8.52,6.5-8.52h.19c1.63,3.65,4.62,6.11,8.05,6.11,5.16,0,9.35-5.55,9.35-12.4s-4.19-12.4-9.35-12.4ZM252.97,62.74h0v.26-.26Z" fill="#D80026"></path><path class="cls-4" d="M205.69,157.13h0s-1.22-77.83-1.22-77.83c-.24-15.48-13-27.91-28.64-27.91h-3.94s-26.66,1.11-26.66,21.19c0,4.85,3.98,8.78,8.87,8.78s8.87-3.94,8.87-8.78c0-3.62-2.21-6.72-5.37-8.07,5.18-4.44,14.28-3.8,14.28-3.8,4.99,0,8.49,4.7,8.47,9.64l.06,18.89c-4.16-2.75-9.69-4.01-16.98-4.01-17.16,0-28.26,17.22-28.26,42.27,0,27.1,12.65,41.67,28.26,41.67,7.32,0,12.97-2.25,17.22-6.16l.02,4.97h35.06v-10.85h-10.04ZM172.58,159.02c-7.74,0-14.01-4.13-14.01-32.38s6.27-32.98,14.01-32.98c2.92,0,5.63,2.15,7.88,5.79l.17,53.68c-2.28,3.7-5.05,5.88-8.05,5.88Z" fill="#D80026"></path><path class="cls-1" d="M478.47,63.91v-.6c4.85-1.56,7.03-5.05,7.03-11.05v-5.88c0-9.13-7.04-14.41-16.87-14.41s-17.11,5.28-17.11,14.41v5.88c0,6,2.19,9.49,7.04,11.05v.6c-4.85.84-7.4,4.56-7.4,9.72v10.45c0,8.29,6.55,13.93,16.87,13.93s17.84-5.89,17.84-13.93v-10.45c0-5.16-2.55-8.88-7.4-9.72ZM464.88,45.77c0-2.28,1.46-3.84,3.76-3.84s3.52,1.44,3.52,3.84v9.61h0c0,2.88-1.33,4.2-3.64,4.2s-3.64-1.32-3.64-4.2v-9.61ZM472.51,83.84c0,2.52-1.46,4.2-4,4.2s-4-1.68-4-4.2v-10.57c0-3.24,1.33-4.69,4-4.69s4,1.44,4,4.69v10.57Z" fill="none"></path><path class="cls-1" d="M506.73,31.95c-10.31,0-17.23,6.37-17.23,16.33v33.39c0,10.81,5.82,16.33,16.87,16.33s16.87-5.64,16.87-16.33v-33.39c0-10.21-6.19-16.33-16.5-16.33Z" fill="none"></path><path class="cls-6" d="M468.51,68.59c-2.67,0-4,1.44-4,4.69v10.57c0,2.52,1.46,4.2,4,4.2s4-1.68,4-4.2v-10.57c0-3.24-1.33-4.69-4-4.69Z"></path><path class="cls-6" d="M468.52,59.58c2.31,0,3.64-1.32,3.64-4.2h0v-9.61c0-2.4-1.33-3.84-3.52-3.84-2.3,0-3.76,1.56-3.76,3.84v9.61c0,2.88,1.33,4.2,3.64,4.2Z"></path><path class="cls-6" d="M486.71,10.09c-31.21,0-56.51,25.04-56.51,55.93s25.3,55.93,56.51,55.93,56.5-25.04,56.5-55.93-25.3-55.93-56.5-55.93ZM485.86,84.08c0,8.04-7.52,13.93-17.84,13.93s-16.87-5.64-16.87-13.93v-10.45c0-5.16,2.55-8.89,7.4-9.72v-.6c-4.85-1.56-7.04-5.05-7.04-11.05v-5.88c0-9.13,7.28-14.41,17.11-14.41s16.87,5.28,16.87,14.41v5.88c0,6-2.18,9.49-7.03,11.05v.6c4.85.84,7.4,4.56,7.4,9.72v10.45ZM523.23,81.68c0,10.69-5.83,16.33-16.87,16.33s-16.87-5.52-16.87-16.33v-33.39c0-9.97,6.92-16.33,17.23-16.33s16.5,6.13,16.5,16.33v33.39Z"></path><path class="cls-6" d="M506.36,42.17c-2.55,0-3.64,1.68-3.64,4.44v36.87c0,2.52.6,4.44,3.64,4.44,2.55,0,3.64-1.32,3.64-4.44v-36.87c0-2.88-1.09-4.44-3.64-4.44Z"></path></g></g></g></g></g></symbol><use xlink:href="#logoClarin"></use></svg>