<svg width="164" height="44" fill="none" xmlns="http://www.w3.org/2000/svg"><path fill-rule="evenodd" clip-rule="evenodd" d="M104.894 10.819h9.961v32.343h-9.961V10.82Zm0-10.819h9.961v7.41h-9.961V0Zm-12.98 26.783c0 5.2-.124 10.163-3.877 10.163-2.95 0-3.563-3.469-3.563-9.744 0-5.74.245-10.163 3.627-10.163 3.628 0 3.813 3.885 3.813 9.744ZM84.655.48h-9.96v42.682h9.594v-3.946h.124C85.15 41.431 87.18 44 91.604 44c6.704 0 10.268-4.662 10.268-16.736 0-10.048-1.474-17.28-9.652-17.28-2.766 0-5.778.894-7.44 4.362h-.125V.48Zm-46.31 10.338h-9.59v32.344h9.957V22c0-3.168 1.663-4.604 3.568-4.604 1.84 0 2.887 1.377 2.887 3.707v22.06h9.961V22c0-3.168 1.663-4.604 3.567-4.604 1.848 0 2.891 1.377 2.891 3.707v22.06h9.96V18.95c0-6.216-3.01-8.965-8.671-8.965-3.688 0-5.9 1.194-8.238 4.963-1.474-4.423-5.287-4.963-8.178-4.963-3.684 0-6.579 1.792-7.992 4.662h-.121v-3.829Zm78.232 6.697h4.119v17.277c0 7.536 1.966 8.73 8.851 8.73a45.93 45.93 0 0 0 5.717-.36v-6.455c-.427.059-.982.118-1.41.118-2.335 0-3.2-.717-3.2-2.988V17.515h4.61v-6.697h-4.61V1.317h-9.958v9.501h-4.119v6.697Zm33.633-1.196c-2.951 0-3.813 2.813-3.813 10.644 0 7.892.862 10.7 3.813 10.7 3.076 0 3.688-2.69 3.688-10.638 0-8.015-.612-10.706-3.688-10.706Zm-13.774 10.765c0-9.69 2.214-17.1 13.71-17.1 12.179 0 13.716 7.232 13.716 16.917 0 9.685-2.214 17.1-13.716 17.1-12.172 0-13.71-7.235-13.71-16.917ZM12.492 37.296c2.093 0 3.997-1.198 3.997-4.427 0-1.584.023-2.816.041-3.83.013-.71.024-1.314.024-1.857a28.079 28.079 0 0 1-3.69 1.589c-.764.275-1.294.466-1.728.803-1.043.782-1.539 1.797-1.539 3.593 0 2.571 1.047 4.129 2.895 4.129Zm13.292-17.77v16.631c0 2.454 0 5.563 1.168 7.002h-9.598c-.37-1.138-.494-2.454-.555-3.707h-.124c-1.353 2.87-4.49 4.545-7.814 4.545-5.6 0-8.861-2.87-8.861-9.871 0-3.77 1.599-6.944 4.062-8.26 1.851-.989 4.4-1.573 6.728-2.107.766-.176 1.508-.346 2.193-.523 3.019-.78 3.57-1.259 3.57-3.71 0-1.975-.921-3.232-3.14-3.232-2.769 0-3.566 1.614-3.63 4.427H.922c.063-4.427 1.416-7.12 3.755-8.673 1.413-.943 3.015-1.51 4.97-1.813l3.396-9.074h9.6l-6.28 8.883c6.496.524 9.42 3.364 9.42 9.483Z" fill="#0994DC"/></svg>
