<svg xmlns="http://www.w3.org/2000/svg" fill="none" viewBox="0 0 240 45" id="logo"><path d="M128.989 44.22V33.155a7.931 7.931 0 01-5.044 1.704 9.538 9.538 0 01-7.136-3.174 10.048 10.048 0 01-2.365-6.585c0-5.54 4.111-9.8 9.23-9.8 2-.025 3.946.646 5.506 1.898v-1.645h4.847V44.22h-5.038zm-9.655-19.127a4.9 4.9 0 00.319 1.954 4.903 4.903 0 004.644 3.16 5.509 5.509 0 004.537-2.324V22.27a5.786 5.786 0 00-4.653-2.325 4.92 4.92 0 00-3.516 1.546 4.917 4.917 0 00-1.331 3.603zm100.652 0a10.01 10.01 0 0111.807-10.088 10.007 10.007 0 01-1.799 19.852 9.787 9.787 0 01-10.008-9.764zm5.045 0a4.966 4.966 0 003.19 4.45 4.963 4.963 0 101.773-9.6 4.912 4.912 0 00-4.966 5.15h.003zm-86.406 6.741a9.328 9.328 0 01-1.9-6.198V15.547h5.045v10.284c0 1.708.348 2.555.93 3.214a3.785 3.785 0 002.831 1.163 5.81 5.81 0 004.382-2.325V15.546h5.044v18.922h-4.854v-1.512a7.48 7.48 0 01-5.079 1.9 8.237 8.237 0 01-6.399-3.023zm62.243-.155a10.085 10.085 0 01-2.404-6.586c0-5.539 4.111-9.8 9.23-9.8a8.352 8.352 0 015.312 1.742V5.8h5.041v28.67h-4.845v-1.513a7.866 7.866 0 01-5.235 1.899 9.462 9.462 0 01-7.096-3.176h-.003zm2.637-6.586a4.917 4.917 0 003.02 4.738 4.915 4.915 0 001.944.377 5.509 5.509 0 004.536-2.325V22.27a5.782 5.782 0 00-4.653-2.325 4.913 4.913 0 00-4.546 3.213 4.914 4.914 0 00-.299 1.936h-.002zm-24.156 6.586a10.074 10.074 0 01-2.404-6.586c0-5.539 4.111-9.8 9.229-9.8 2-.025 3.947.646 5.507 1.898v-1.644h4.847v18.922h-4.847v-1.512a7.866 7.866 0 01-5.235 1.898 9.459 9.459 0 01-7.095-3.176h-.002zm2.638-6.586a4.917 4.917 0 003.02 4.738 4.91 4.91 0 001.943.377 5.51 5.51 0 004.537-2.325V22.27a5.784 5.784 0 00-4.654-2.325 4.913 4.913 0 00-4.546 3.213 4.913 4.913 0 00-.298 1.936h-.002zm-24.622 0c0-5.23 3.568-9.8 9.152-9.8 5.196 0 8.88 4.378 8.88 9.606.003.48-.036.96-.117 1.433h-13.028a4.937 4.937 0 005.08 4.455 6.66 6.66 0 004.731-2.168l2.869 2.866a10.206 10.206 0 01-7.716 3.37c-5.623 0-9.854-3.872-9.854-9.762h.003zm5.119-2.44h7.757a3.755 3.755 0 00-3.723-3.293 4.08 4.08 0 00-4.03 3.293h-.004zm-68.235 2.44c0-5.23 3.568-9.8 9.152-9.8 5.195 0 8.88 4.378 8.88 9.606.003.48-.036.96-.118 1.433H99.136a4.937 4.937 0 005.08 4.455 6.663 6.663 0 004.735-2.164l2.869 2.866a10.208 10.208 0 01-7.716 3.37c-5.628-.004-9.854-3.877-9.854-9.766h-.001zm5.118-2.44h7.756a3.75 3.75 0 00-3.722-3.293 4.08 4.08 0 00-4.032 3.293h-.002zm-46.855 2.44a9.84 9.84 0 0110.12-9.8 10.039 10.039 0 017.911 3.757l-3.568 3.138a5.452 5.452 0 00-4.342-2.247 5.038 5.038 0 00-5.08 5.152 4.968 4.968 0 005.195 5.114 5.512 5.512 0 004.499-2.479l3.877 2.905a9.972 9.972 0 01-8.531 4.222 9.75 9.75 0 01-10.08-9.762h-.001zm34.37 9.376v-9.956c0-1.86-.426-2.828-1.124-3.525a3.974 3.974 0 00-2.83-1.046 6.008 6.008 0 00-4.576 2.326v12.204h-5.038V5.8h5.04v11.236a8.335 8.335 0 015.12-1.743 8.476 8.476 0 016.514 3.021c1.24 1.472 1.938 3.37 1.938 6.587v9.567h-5.043z" fill="#354052"/><path fill-rule="evenodd" clip-rule="evenodd" d="M30.65 1L11.147 34.4H32.88L52.385.996 30.651 1z" fill="#354052"/><path fill-rule="evenodd" clip-rule="evenodd" d="M21.874 16.031L11.146 34.403-.001 16.031h21.875z" fill="#F72D54"/><path fill-rule="evenodd" clip-rule="evenodd" d="M32.88 34.403L21.873 16.031 11.145 34.403H32.88z" fill="#973754"/></svg>