<svg xmlns:xlink="http://www.w3.org/1999/xlink" xmlns="http://www.w3.org/2000/svg" width="180" height="18" viewBox="0 0 286 28" fill="none" alt="La Gaceta" id="brandHeader"><path fill="#0070D7" fill-rule="evenodd" d="M28.637 19.407h-7.989v5.891h-8.48V3.451h4.301v-2.7H0v2.7h4.302v21.97H0v2.455h28.637v-8.47ZM252.939.874v7.855h-6.392V3.942h-6.391v21.233h4.179v2.7h-16.469v-2.7h4.302V3.82h-6.514v4.787h-6.391V.874h33.676Zm-53.464 11.66V3.942h9.832V8.73h7.743V.874h-30.603v3.068h5.285v21.356h-5.285v2.7h30.603v-8.837h-7.743v6.137h-9.832v-9.941h7.374v-2.823h-7.374Zm-23.352 6.995c-.983 3.56-2.95 6.137-6.76 6.137-7.743 0-8.357-7.61-8.357-12.028 0-4.91.614-11.046 7.743-11.046 4.547 0 6.514 3.191 7.251 6.26h8.358V.874h-7.866V3.45c-2.09-2.946-7.375-3.56-9.218-3.436-10.816.736-15.732 6.136-15.732 13.623 0 7.855 3.81 14.483 16.592 14.36 8.358 0 15.117-3.805 14.994-8.469h-7.005Zm-61.453-1.595h4.056v-2.578h-16.1v2.7h4.056c-.369 3.192-2.336 7.61-6.883 7.61-7.743 0-8.358-7.61-8.358-12.028 0-4.91.615-11.046 7.743-11.046 4.548 0 6.637 3.191 7.252 6.26h8.357V.874h-7.866V3.45C104.715.505 99.553-.109 97.709.015 86.895.75 81.979 6.275 81.979 13.638c0 7.855 3.81 14.483 16.592 14.36 3.564 0 6.268-.245 8.234-3.068v2.823h7.989l-.123-9.819ZM270.76.874h-7.129l-11.061 24.67h-4.179v2.454h11.553v-2.454h-3.441l2.089-5.155h12.168l2.335 5.155h-3.564l-.615 2.454H286v-2.454h-4.179L270.76.874Zm-10.939 16.692 5.039-11.783 4.671 11.783h-9.71ZM139.374.874h-7.128l-11.062 24.67h-4.178v2.454h11.553v-2.454h-3.442l2.09-5.155h12.167l2.336 5.155h-4.302v2.454h17.084v-2.454h-4.179L139.374.874Zm-11.061 16.692 5.039-11.783 4.67 11.783h-9.709ZM53.463.874h-7.128l-11.061 24.67h-4.179v2.454h11.553v-2.454h-3.441l2.09-5.155h12.167l2.212 5.155H51.62v2.454h17.084v-2.454h-4.179L53.464.874ZM42.526 17.566l5.04-11.783 4.793 11.783h-9.833Z" clip-rule="evenodd"></path></svg>